<svg width="687" height="526" viewBox="0 0 687 526" fill="none" xmlns="http://www.w3.org/2000/svg">
<g clip-path="url(#clip0_1246_687)">
<path d="M169.571 479.96L170.968 507.461L170.968 507.463C171.204 512.111 169.453 516.656 166.1 520.099C162.746 523.541 158.066 525.599 153.088 525.82L152.478 525.847L150.19 480.818L169.571 479.96Z" fill="#2F2E41"/>
<path d="M588.328 433.483C574.3 459.045 556.507 483.766 533.994 506.141C533.494 506.647 532.989 507.139 532.479 507.64L479.14 484.062C479.466 483.556 479.824 482.987 480.208 482.366C503.121 445.761 641.433 222.467 637.063 171.894C637.572 176.065 653.966 314.005 588.328 433.483Z" fill="#E6E6E6"/>
<path d="M544.284 510.69C543.538 511.086 542.772 511.474 542.001 511.849L501.987 494.161C502.547 493.791 503.198 493.353 503.948 492.86C516.206 484.641 552.659 459.984 588.328 433.483C626.659 405.006 664.092 374.407 669.652 359.802C668.522 363.151 633.438 464.958 544.284 510.69Z" fill="#E6E6E6"/>
<path d="M66.5614 524.748C100.667 524.748 128.314 498.933 128.314 467.088C128.314 435.243 100.667 409.427 66.5614 409.427C32.4563 409.427 4.80859 435.243 4.80859 467.088C4.80859 498.933 32.4563 524.748 66.5614 524.748Z" fill="#210068"/>
<path d="M91.2977 442.891H41.8255C39.6394 442.893 37.5436 443.705 35.9978 445.148C34.452 446.592 33.5826 448.549 33.5801 450.59V483.585C33.5825 485.627 34.452 487.584 35.9978 489.027C37.5436 490.47 39.6394 491.282 41.8255 491.284H91.2978C93.4838 491.282 95.5797 490.47 97.1255 489.027C98.6712 487.584 99.5407 485.627 99.5432 483.585V450.59C99.5407 448.549 98.6712 446.592 97.1254 445.148C95.5796 443.705 93.4838 442.893 91.2977 442.891ZM91.2977 447.29C91.5931 447.291 91.8871 447.327 92.1729 447.397L66.5673 466.469L41.1115 447.358C41.3464 447.313 41.5856 447.29 41.8254 447.29H91.2977ZM91.2977 486.885H41.8255C40.8886 486.884 39.9904 486.536 39.3279 485.918C38.6654 485.299 38.2928 484.46 38.2917 483.585V450.886L65.0855 471.002C65.5027 471.315 66.0218 471.486 66.5571 471.487C67.0925 471.488 67.6122 471.319 68.0307 471.007L94.8315 451.044V483.585C94.8305 484.46 94.4578 485.299 93.7953 485.918C93.1328 486.536 92.2346 486.884 91.2977 486.885Z" fill="white"/>
<path d="M304.88 383.841L318.698 383.947C320.096 383.957 321.48 383.683 322.752 383.143C324.025 382.603 325.157 381.811 326.068 380.821C326.979 379.83 327.648 378.667 328.028 377.41C328.408 376.154 328.49 374.835 328.268 373.546C328.029 372.159 327.445 370.843 326.562 369.705C325.68 368.568 324.523 367.639 323.186 366.995C321.849 366.35 320.368 366.008 318.864 365.995C317.359 365.982 315.872 366.3 314.523 366.921L301.492 372.925L256.925 382.205L237.832 363.978L226.864 380.844L252.629 399.431L304.88 383.841Z" fill="#FFB8B8"/>
<path d="M302.29 517.137L286.011 520.06C274.892 487.331 262.844 456.337 262.845 432.365C247.108 448.718 227.594 458.074 204.615 461.012L207.12 424.765L225.903 415.411L254.652 403.022C257.169 401.937 259.884 401.31 262.652 401.174C268.034 400.909 273.331 402.513 277.523 405.676C281.714 408.84 284.504 413.339 285.356 418.309L302.29 517.137Z" fill="#2F2E41"/>
<path d="M224.338 456.627L217.85 461.232C215.06 463.211 211.764 464.476 208.289 464.899C204.814 465.322 201.281 464.889 198.041 463.643C179.457 450.636 166.254 454.473 154.288 474.106C139.935 458.98 136.394 437.135 149.203 414.534L220.268 415.995L234.669 411.903L224.338 456.627Z" fill="#2F2E41"/>
<path d="M200.671 524.363C196.599 525.533 192.216 525.328 188.29 523.783C184.364 522.239 181.145 519.454 179.197 515.915C172.81 510.663 167.422 503.143 162.748 493.998C159.395 487.29 156.515 480.384 154.128 473.324C150.894 463.998 156.302 453.809 166.366 451.018C166.666 450.935 166.969 450.857 167.275 450.784C180.711 447.563 194.509 454.799 199.102 467.021L212.457 502.56C213.246 504.66 213.584 506.884 213.453 509.105C213.321 511.327 212.722 513.502 211.69 515.508C210.658 517.513 209.213 519.309 207.438 520.793C205.662 522.277 203.591 523.42 201.343 524.157C201.12 524.23 200.897 524.299 200.671 524.363Z" fill="#2F2E41"/>
<path opacity="0.2" d="M160.474 489.951C160.474 489.951 176.127 506.321 179.257 515.675Z" fill="black"/>
<path d="M99.7651 412.696L94.5263 424.635C93.9962 425.843 93.7547 427.145 93.8187 428.449C93.8826 429.753 94.2504 431.028 94.8965 432.186C95.5425 433.344 96.4513 434.356 97.5594 435.152C98.6675 435.948 99.9482 436.509 101.312 436.796C102.78 437.104 104.305 437.086 105.765 436.744C107.224 436.401 108.577 435.744 109.715 434.824C110.852 433.904 111.743 432.748 112.314 431.449C112.886 430.149 113.123 428.742 113.006 427.341L111.877 413.815L119.207 371.731L144.424 361.951L131.728 346.177L103.675 361.608L99.7651 412.696Z" fill="#FFB8B8"/>
<path d="M224.964 414.534C206.974 442.749 171.11 453.675 140.393 431.581C145.797 415.003 163.242 369.187 151.972 367.433C128.043 376.803 128.008 354.804 123.532 343.793L178.005 325.085L207.433 332.685L213.465 334.684C217.391 335.985 220.796 338.377 223.222 341.538C225.649 344.7 226.98 348.48 227.037 352.369C214.675 369.044 205.524 386.832 224.964 414.534Z" fill="#210068"/>
<path d="M231.851 391.733L210.25 375.071L217.45 336.193L246.878 365.425L231.851 391.733Z" fill="#210068"/>
<path d="M590.283 124.651H587.195V45.6961C587.195 33.5767 582.039 21.9537 572.862 13.3841C563.684 4.8144 551.236 0 538.256 0H359.106C346.127 0 333.679 4.8144 324.501 13.3841C315.323 21.9537 310.167 33.5767 310.167 45.6961V478.853C310.167 490.972 315.323 502.595 324.501 511.165C333.679 519.735 346.127 524.549 359.106 524.549H538.256C551.235 524.549 563.683 519.735 572.861 511.165C582.039 502.595 587.195 490.972 587.195 478.853V180.853H590.282L590.283 124.651Z" fill="#3F3D56"/>
<path d="M540.231 11.8874H516.846C517.922 14.3495 518.333 17.0208 518.042 19.6661C517.752 22.3113 516.769 24.8493 515.181 27.0564C513.593 29.2635 511.447 31.0719 508.934 32.3223C506.42 33.5727 503.616 34.2266 500.768 34.2266H398.136C395.289 34.2264 392.485 33.5723 389.972 32.322C387.459 31.0717 385.314 29.2635 383.726 27.0567C382.137 24.8499 381.155 22.3123 380.864 19.6674C380.573 17.0225 380.984 14.3515 382.059 11.8896H360.214C350.521 11.8896 341.225 15.4851 334.371 21.885C327.517 28.285 323.666 36.9652 323.666 46.0161V478.535C323.666 487.586 327.517 496.266 334.371 502.666C341.225 509.066 350.521 512.661 360.214 512.661H540.224C549.917 512.661 559.213 509.066 566.068 502.666C572.922 496.266 576.772 487.586 576.772 478.535V46.0139C576.772 36.963 572.922 28.2828 566.068 21.8828C559.213 15.4829 549.917 11.8874 540.224 11.8874L540.231 11.8874Z" fill="white"/>
<path d="M450.532 488.491C461.616 488.491 470.601 480.101 470.601 469.751C470.601 459.401 461.616 451.011 450.532 451.011C439.447 451.011 430.462 459.401 430.462 469.751C430.462 480.101 439.447 488.491 450.532 488.491Z" fill="#E6E6E6"/>
<path d="M369.114 296.446C367.217 296.446 365.673 298.092 365.673 300.114C365.673 302.135 367.217 303.781 369.114 303.781H531.325C533.222 303.781 534.766 302.135 534.766 300.114C534.766 298.092 533.222 296.446 531.325 296.446H369.114Z" fill="#E6E6E6"/>
<path d="M369.114 382.937C367.217 382.937 365.673 384.583 365.673 386.605C365.673 388.626 367.217 390.272 369.114 390.272H531.325C533.222 390.272 534.766 388.626 534.766 386.605C534.766 384.583 533.222 382.937 531.325 382.937H369.114Z" fill="#E6E6E6"/>
<path d="M369.114 318.449C367.217 318.449 365.673 320.095 365.673 322.116C365.673 324.138 367.217 325.784 369.114 325.784H438.914C440.811 325.784 442.355 324.138 442.355 322.116C442.355 320.095 440.811 318.449 438.914 318.449H369.114Z" fill="#E6E6E6"/>
<path d="M369.114 339.422C367.217 339.422 365.673 341.067 365.673 343.089C365.673 345.111 367.217 346.756 369.114 346.756H531.325C533.222 346.756 534.766 345.111 534.766 343.089C534.766 341.067 533.222 339.422 531.325 339.422H369.114Z" fill="#E6E6E6"/>
<path d="M369.114 361.425C367.217 361.425 365.673 363.07 365.673 365.092C365.673 367.114 367.217 368.759 369.114 368.759H438.914C440.811 368.759 442.355 367.114 442.355 365.092C442.355 363.07 440.811 361.425 438.914 361.425H369.114Z" fill="#E6E6E6"/>
<path d="M399.736 129.468H500.712C501.827 129.469 502.897 129.883 503.686 130.62C504.474 131.356 504.918 132.355 504.919 133.396V231.59C504.918 232.632 504.474 233.63 503.686 234.367C502.897 235.103 501.827 235.517 500.712 235.519H399.736C398.62 235.517 397.551 235.103 396.762 234.367C395.973 233.63 395.53 232.632 395.528 231.59V133.396C395.53 132.355 395.973 131.356 396.762 130.62C397.551 129.883 398.62 129.469 399.736 129.468Z" fill="#210068"/>
<path d="M479.196 215.269C479.572 215.27 479.944 215.202 480.291 215.068C480.638 214.934 480.953 214.738 481.219 214.49C481.485 214.243 481.696 213.949 481.84 213.625C481.984 213.301 482.058 212.954 482.058 212.603C482.059 212.253 481.985 211.906 481.841 211.582C481.697 211.258 481.487 210.963 481.221 210.716C480.956 210.468 480.64 210.271 480.293 210.137C479.946 210.003 479.574 209.935 479.199 209.935H421.252C420.876 209.934 420.504 210.003 420.157 210.136C419.81 210.27 419.495 210.466 419.229 210.714C418.963 210.961 418.752 211.256 418.608 211.579C418.464 211.903 418.39 212.25 418.39 212.601C418.389 212.951 418.463 213.299 418.607 213.623C418.751 213.946 418.961 214.241 419.227 214.489C419.492 214.736 419.808 214.933 420.155 215.067C420.502 215.201 420.874 215.27 421.249 215.269H479.196Z" fill="white"/>
<path d="M479.197 199.555C479.954 199.555 480.681 199.274 481.216 198.774C481.752 198.274 482.053 197.595 482.053 196.888C482.053 196.181 481.752 195.502 481.216 195.002C480.681 194.502 479.954 194.221 479.197 194.221H421.252C420.495 194.221 419.768 194.501 419.232 195.001C418.696 195.501 418.395 196.179 418.395 196.887C418.394 197.594 418.695 198.273 419.23 198.773C419.766 199.273 420.492 199.555 421.25 199.555H479.197Z" fill="white"/>
<path d="M450.224 149.717C453.78 149.717 457.256 150.702 460.213 152.546C463.17 154.391 465.474 157.013 466.835 160.081C468.196 163.148 468.552 166.524 467.858 169.781C467.164 173.037 465.452 176.029 462.938 178.376C460.423 180.724 457.219 182.323 453.732 182.971C450.244 183.619 446.629 183.286 443.343 182.016C440.058 180.745 437.25 178.593 435.274 175.832C433.299 173.072 432.244 169.826 432.244 166.505C432.25 162.054 434.146 157.787 437.516 154.64C440.887 151.492 445.457 149.722 450.224 149.717Z" fill="white"/>
<path d="M220.816 319.995H167.438C166.34 319.994 165.288 319.586 164.511 318.861C163.735 318.136 163.298 317.153 163.297 316.128V294.645C163.297 287.01 166.545 279.688 172.327 274.29C178.109 268.891 185.95 265.858 194.127 265.858C202.304 265.858 210.145 268.891 215.927 274.29C221.709 279.688 224.957 287.01 224.957 294.645V316.128C224.956 317.153 224.519 318.136 223.743 318.861C222.966 319.586 221.914 319.994 220.816 319.995Z" fill="#2F2E41"/>
<path d="M219.854 307.719C225.842 297.491 221.816 284.667 210.862 279.076C199.909 273.485 186.175 277.244 180.187 287.472C174.199 297.7 178.225 310.524 189.178 316.115C200.132 321.706 213.866 317.947 219.854 307.719Z" fill="#FFB6B6"/>
<path d="M232.251 296.794H199.612L199.277 292.418L197.603 296.794H192.578L191.914 288.122L188.598 296.794H178.873V296.364C178.88 290.327 181.452 284.538 186.024 280.269C190.596 276 196.795 273.599 203.261 273.592H207.863C214.328 273.599 220.527 276 225.099 280.269C229.671 284.538 232.243 290.327 232.251 296.364V296.794Z" fill="#2F2E41"/>
<path d="M199.345 324.005C199.099 324.005 198.854 323.985 198.612 323.945L174.712 320.007V283.126H201.021L200.37 283.835C191.307 293.704 198.135 309.706 203.011 318.366C203.37 319 203.531 319.717 203.473 320.432C203.416 321.148 203.143 321.834 202.687 322.411C202.304 322.904 201.802 323.306 201.221 323.584C200.64 323.861 199.997 324.005 199.345 324.005Z" fill="#2F2E41"/>
<path d="M278.916 506.098L308.403 506.097H308.404C313.388 506.098 318.167 507.946 321.691 511.237C325.215 514.527 327.195 518.99 327.195 523.643V524.213L278.917 524.215L278.916 506.098Z" fill="#2F2E41"/>
<path d="M686.228 526H0.77191C0.567187 526 0.370848 525.924 0.226087 525.789C0.0813254 525.654 0 525.471 0 525.279C0 525.088 0.0813254 524.905 0.226087 524.77C0.370848 524.634 0.567187 524.559 0.77191 524.559H686.228C686.433 524.559 686.629 524.634 686.774 524.77C686.919 524.905 687 525.088 687 525.279C687 525.471 686.919 525.654 686.774 525.789C686.629 525.924 686.433 526 686.228 526Z" fill="#CACACA"/>
</g>
<defs>
<clipPath id="clip0_1246_687">
<rect width="687" height="526" fill="white"/>
</clipPath>
</defs>
</svg>
